<?xml version="1.0" encoding="UTF-8" standalone="no"?>
<!DOCTYPE svg PUBLIC "-//W3C//DTD SVG 1.1//EN"
 "http://www.w3.org/Graphics/SVG/1.1/DTD/svg11.dtd">
<!-- Generated by graphviz version 2.26.3 (20100126.1600)
 -->
<!-- Title: pluginoid Pages: 1 -->
<svg width="218pt" height="224pt"
 viewBox="0.00 0.00 218.00 224.00" xmlns="http://www.w3.org/2000/svg" xmlns:xlink="http://www.w3.org/1999/xlink">
<g id="graph1" class="graph" transform="scale(1 1) rotate(0) translate(4 220)">
<title>pluginoid</title>
<polygon fill="white" stroke="white" points="-4,5 -4,-220 215,-220 215,5 -4,5"/>
<text text-anchor="middle" x="105" y="-9.4" font-family="Times Roman,serif" font-size="14.00">Pluginoid</text>
<!-- plugnoid -->
<g id="node1" class="node"><title>plugnoid</title>
<polyline fill="none" stroke="black" points="12,-26 198,-26 "/>
<path fill="none" stroke="black" d="M198,-26C204,-26 210,-32 210,-38"/>
<polyline fill="none" stroke="black" points="210,-38 210,-204 "/>
<path fill="none" stroke="black" d="M210,-204C210,-210 204,-216 198,-216"/>
<polyline fill="none" stroke="black" points="198,-216 12,-216 "/>
<path fill="none" stroke="black" d="M12,-216C6,-216 0,-210 0,-204"/>
<polyline fill="none" stroke="black" points="0,-204 0,-38 "/>
<path fill="none" stroke="black" d="M0,-38C0,-32 6,-26 12,-26"/>
<text text-anchor="middle" x="105" y="-199.4" font-family="Times Roman,serif" font-size="14.00">swarm</text>
<polyline fill="none" stroke="black" points="0,-190 210,-190 "/>
<text text-anchor="middle" x="39" y="-141.4" font-family="Times Roman,serif" font-size="14.00">Interface</text>
<polyline fill="none" stroke="black" points="78,-116 78,-190 "/>
<text text-anchor="middle" x="107.5" y="-141.4" font-family="Times Roman,serif" font-size="14.00">Plugin</text>
<polyline fill="none" stroke="black" points="137,-116 137,-190 "/>
<text text-anchor="middle" x="173.5" y="-141.4" font-family="Times Roman,serif" font-size="14.00">Hooking</text>
<polyline fill="none" stroke="black" points="0,-116 210,-116 "/>
<text text-anchor="middle" x="15" y="-67.4" font-family="Times Roman,serif" font-size="14.00"> </text>
<polyline fill="none" stroke="black" points="30,-26 30,-116 "/>
<text text-anchor="middle" x="67.5" y="-35.4" font-family="Times Roman,serif" font-size="14.00">spindle</text>
<polyline fill="none" stroke="black" points="105,-26 105,-116 "/>
<text text-anchor="middle" x="142" y="-35.4" font-family="Times Roman,serif" font-size="14.00">rehash</text>
<polyline fill="none" stroke="black" points="179,-26 179,-116 "/>
<text text-anchor="middle" x="194.5" y="-67.4" font-family="Times Roman,serif" font-size="14.00"> </text>
</g>
</g>
</svg>
