<?xml version="1.0" encoding="UTF-8" standalone="no"?>
<!DOCTYPE svg PUBLIC "-//W3C//DTD SVG 1.1//EN"
 "http://www.w3.org/Graphics/SVG/1.1/DTD/svg11.dtd">
<!-- Generated by graphviz version 2.26.3 (20100126.1600)
 -->
<!-- Title: pluginoid Pages: 1 -->
<svg width="240pt" height="224pt"
 viewBox="0.00 0.00 240.00 224.00" xmlns="http://www.w3.org/2000/svg" xmlns:xlink="http://www.w3.org/1999/xlink">
<g id="graph1" class="graph" transform="scale(1 1) rotate(0) translate(4 220)">
<title>pluginoid</title>
<polygon fill="white" stroke="white" points="-4,5 -4,-220 237,-220 237,5 -4,5"/>
<text text-anchor="middle" x="116" y="-9.4" font-family="Times Roman,serif" font-size="14.00">Pluginoid</text>
<!-- pluginoid -->
<g id="node1" class="node"><title>pluginoid</title>
<polyline fill="none" stroke="black" points="12,-26 220,-26 "/>
<path fill="none" stroke="black" d="M220,-26C226,-26 232,-32 232,-38"/>
<polyline fill="none" stroke="black" points="232,-38 232,-204 "/>
<path fill="none" stroke="black" d="M232,-204C232,-210 226,-216 220,-216"/>
<polyline fill="none" stroke="black" points="220,-216 12,-216 "/>
<path fill="none" stroke="black" d="M12,-216C6,-216 0,-210 0,-204"/>
<polyline fill="none" stroke="black" points="0,-204 0,-38 "/>
<path fill="none" stroke="black" d="M0,-38C0,-32 6,-26 12,-26"/>
<text text-anchor="middle" x="116" y="-199.4" font-family="Times Roman,serif" font-size="14.00">register(extension point)</text>
<polyline fill="none" stroke="black" points="0,-190 232,-190 "/>
<text text-anchor="middle" x="59.5" y="-150.4" font-family="Times Roman,serif" font-size="14.00">Interface</text>
<text text-anchor="middle" x="59.5" y="-132.4" font-family="Times Roman,serif" font-size="14.00">getInterface()</text>
<polyline fill="none" stroke="black" points="119,-116 119,-190 "/>
<text text-anchor="middle" x="134.5" y="-141.4" font-family="Times Roman,serif" font-size="14.00">&#45;</text>
<polyline fill="none" stroke="black" points="150,-116 150,-190 "/>
<text text-anchor="middle" x="191" y="-150.4" font-family="Times Roman,serif" font-size="14.00">Hooking</text>
<text text-anchor="middle" x="191" y="-132.4" font-family="Times Roman,serif" font-size="14.00">act()</text>
<polyline fill="none" stroke="black" points="0,-116 232,-116 "/>
<text text-anchor="middle" x="10.5" y="-67.4" font-family="Times Roman,serif" font-size="14.00"> </text>
<polyline fill="none" stroke="black" points="21,-26 21,-116 "/>
<text text-anchor="middle" x="79" y="-35.4" font-family="Times Roman,serif" font-size="14.00">acceptVisitor()</text>
<polyline fill="none" stroke="black" points="137,-26 137,-116 "/>
<text text-anchor="middle" x="174" y="-35.4" font-family="Times Roman,serif" font-size="14.00">swarm()</text>
<polyline fill="none" stroke="black" points="211,-26 211,-116 "/>
<text text-anchor="middle" x="221.5" y="-67.4" font-family="Times Roman,serif" font-size="14.00"> </text>
</g>
</g>
</svg>
