<?xml version="1.0" encoding="UTF-8" standalone="no"?>
<!-- Created with Inkscape (http://www.inkscape.org/) -->

<svg
   xmlns:dc="http://purl.org/dc/elements/1.1/"
   xmlns:cc="http://creativecommons.org/ns#"
   xmlns:rdf="http://www.w3.org/1999/02/22-rdf-syntax-ns#"
   xmlns:svg="http://www.w3.org/2000/svg"
   xmlns="http://www.w3.org/2000/svg"
   xmlns:sodipodi="http://sodipodi.sourceforge.net/DTD/sodipodi-0.dtd"
   xmlns:inkscape="http://www.inkscape.org/namespaces/inkscape"
   width="512"
   height="512"
   id="svg2"
   version="1.1"
   inkscape:version="0.48.3.1 r9886"
   sodipodi:docname="shotodol_icon.svg">
  <sodipodi:namedview
     id="base"
     pagecolor="#ffffff"
     bordercolor="#666666"
     borderopacity="1.0"
     inkscape:pageopacity="0.0"
     inkscape:pageshadow="2"
     inkscape:zoom="0.35477555"
     inkscape:cx="-109.94764"
     inkscape:cy="242.82663"
     inkscape:document-units="px"
     inkscape:current-layer="layer1"
     showgrid="false"
     inkscape:window-width="1280"
     inkscape:window-height="750"
     inkscape:window-x="0"
     inkscape:window-y="0"
     inkscape:window-maximized="1" />
  <defs
     id="defs4">
    <inkscape:path-effect
       effect="skeletal"
       id="path-effect3786"
       is_visible="true"
       pattern="m 185.71429,142.14286 c 0,-2.76 2.24,-5 5,-5 2.76,0 5,2.24 5,5 0,2.76 -2.24,5 -5,5 -2.76,0 -5,-2.24 -5,-5 z"
       copytype="single_stretched"
       prop_scale="1"
       scale_y_rel="false"
       spacing="0"
       normal_offset="0"
       tang_offset="0"
       prop_units="false"
       vertical_pattern="false"
       fuse_tolerance="0" />
    <inkscape:path-effect
       effect="skeletal"
       id="path-effect2991"
       is_visible="true"
       pattern="m 58,5 c 0,-2.76 2.24,-5 5,-5 2.76,0 5,2.24 5,5 0,2.76 -2.24,5 -5,5 -2.76,0 -5,-2.24 -5,-5 z"
       copytype="single_stretched"
       prop_scale="1"
       scale_y_rel="false"
       spacing="0"
       normal_offset="0"
       tang_offset="0"
       prop_units="false"
       vertical_pattern="false"
       fuse_tolerance="0" />
    <inkscape:path-effect
       effect="skeletal"
       id="path-effect2987"
       is_visible="true"
       pattern="M 0,5 C 0,2.24 2.24,0 5,0 7.76,0 10,2.24 10,5 10,7.76 7.76,10 5,10 2.24,10 0,7.76 0,5 z"
       copytype="single_stretched"
       prop_scale="1"
       scale_y_rel="false"
       spacing="0"
       normal_offset="0"
       tang_offset="0"
       prop_units="false"
       vertical_pattern="false"
       fuse_tolerance="0" />
    <inkscape:path-effect
       effect="skeletal"
       id="path-effect3786-3"
       is_visible="true"
       pattern="m 298.02558,138.33407 c 0,-2.76 2.24,-5 5,-5 2.76,0 5,2.24 5,5 0,2.76 -2.24,5 -5,5 -2.76,0 -5,-2.24 -5,-5 z"
       copytype="single_stretched"
       prop_scale="1"
       scale_y_rel="false"
       spacing="0"
       normal_offset="0"
       tang_offset="0"
       prop_units="false"
       vertical_pattern="false"
       fuse_tolerance="0" />
  </defs>
  <metadata
     id="metadata7">
    <rdf:RDF>
      <cc:Work
         rdf:about="">
        <dc:format>image/svg+xml</dc:format>
        <dc:type
           rdf:resource="http://purl.org/dc/dcmitype/StillImage" />
        <dc:title />
      </cc:Work>
    </rdf:RDF>
  </metadata>
  <g
     inkscape:label="Layer 1"
     inkscape:groupmode="layer"
     id="layer1">
    <path
       style="fill:#4a9e06;fill-opacity:1;stroke:none"
       d="m 317.21197,383.78906 -9.27902,20 c -1.66667,0 -10.33333,0 -12,0 -0.95238,0 10.09524,-20 9.14286,-20 -17.5,0 -21,0 -38.5,0 l -0.26664,20 c -0.81588,0 -10.63176,0 -11.44765,0 l 0.28572,-20 c -12.12407,0 -26.31412,0 -40.32539,0 l 10.47462,20 -11.82868,0 -11.77792,-20 c -7.18439,0 -14.12407,0 -20.49353,0 l -33,-55.85937 c -12.34895,0 -0.69791,0 -13.04687,0 0,31.28646 52,62.57291 52,93.85937 98.38021,0 50.76041,0 149.14062,0 0,-31.33333 45,-62.66666 45,-94 -12.32812,0 0.34375,0 -11.98437,0 -10.23959,18.49479 -20.47917,36.98959 -30.71875,55.48438 z"
       id="path2985"
       inkscape:connector-curvature="0"
       sodipodi:nodetypes="ccssccccccccccccccccc" />
    <path
       style="fill:#4a9e06;fill-opacity:1;stroke:none"
       d="m 191.86822,447.50781 c 74.33333,0 64.66666,0 139,0 0,-5.04687 0,-10.09375 0,-15.14062 -74.33334,0 -64.66667,0 -139,0 0,5.04687 0,10.09375 0,15.14062 z"
       id="path2989"
       inkscape:connector-curvature="0"
       sodipodi:nodetypes="ccccc" />
    <path
       style="fill:#ffffff;stroke:#ce5c00;stroke-width:0.50000000000000000;stroke-opacity:1;fill-opacity:1"
       d="m 239.86822,377.36719 c 3.76392,0 10.94832,0 18.39019,0 0.29429,0 -0.41102,23 -0.11612,23 1.17937,0 4.36206,0 5.53554,0 0.42228,0 -0.15663,-23 0.26269,-23 6.69153,0 12.93119,0 16.34957,0 0,-9.60901 40,-82.00148 40,-151.99839 0,-69.09176 -62,-135.79812 -62,-145.28286 -8.14062,0 6.71875,0 -1.42187,0 0,9.39229 -57,76.85726 -57,145.26255 0,70.657 40,142.31724 40,152.0187 z"
       id="path3784"
       inkscape:connector-curvature="0"
       sodipodi:nodetypes="csssscsccsc" />
    <path
       style="fill:#ffffff;stroke:#ce5c00;stroke-width:0.50000000000000000;stroke-opacity:1;fill-opacity:1"
       d="m 214.76047,401.16621 6.79391,0.23223 -11.7725,-21.1839 18.15914,-0.17479 C 222.82567,371.1797 214.1103,289.3509 175.9449,222.96082 142.88152,165.44589 44.73192,142.26226 47.28641,146.79775 c 2.55449,4.5355 126.10137,216.91727 135.64824,233.45294 l 19.92638,-0.1951 z"
       id="path3784-0"
       inkscape:connector-curvature="0"
       sodipodi:nodetypes="ccccscccc" />
    <path
       style="fill:#ffffff;stroke:#ce5c00;stroke-width:0.50000000000000000;stroke-opacity:1;fill-opacity:1"
       d="m 306.40618,401.53265 c 0.36571,0.21114 10.86436,-22.13087 11.2275,-21.92121 l 18.15914,0.17478 c 9.54688,-16.53567 135.09375,-232.91744 134.1245,-237.91182 -0.96924,-4.99437 -96.7419,32.15384 -130.19808,91.28686 -37.8548,66.90747 -41.86491,137.63621 -46.93279,146.41403 l 16.92638,0.19509 c 0.25486,0.14715 -10.35596,20.84705 -10.10056,20.9945 z"
       id="path3784-1"
       inkscape:connector-curvature="0"
       sodipodi:nodetypes="ccccscccc" />
  </g>
</svg>
